# xmcd CD database file
#
# Track frame offsets:
#	150
#	12085
#	24716
#	37484
#	47784
#	59761
#	71730
#	83772
#	95291
#	105684
#	115403
#	128935
#	143147
#	155738
#	167210
#	178050
#	189965
#	202599
#
# Disc length: 2872 seconds
#
# Revision: 0
# Processed by: cddbd v1.4PL0 Copyright (c) Steve Scherf et al.
# Submitted via: Feurio! 1.63 - http://www.feurio.com
#
DISCID=030b3612
DTITLE=Lightnin' Hopkins - BLUES LEGENDS
DYEAR=1900
DGENRE=Blues
TTITLE0=Can't Get The Woman Out Of My Mind
TTITLE1=Picture On The Wall
TTITLE2=You're Not Goin' To Worry My Life Anymore
TTITLE3=You're Gonna Miss Me
TTITLE4=Have To Let You Go
TTITLE5=Someday Baby
TTITLE6=Come Back Baby
TTITLE7=My California
TTITLE8=Lightnin's Boogie
TTITLE9=Feel So Bad
TTITLE10=Katie May
TTITLE11=Blues (That Mean Old Twister)
TTITLE12=I Can't Stay Here In Your Town
TTITLE13=Can't Do Like You Used To
TTITLE14=Short Haired Woman
TTITLE15=West Coast Blues
TTITLE16=Fast Mail Rambler
TTITLE17=Thinkin' And Worryin'
EXTD=
EXTT0=
EXTT1=
EXTT2=
EXTT3=
EXTT4=
EXTT5=
EXTT6=
EXTT7=
EXTT8=
EXTT9=
EXTT10=
EXTT11=
EXTT12=
EXTT13=
EXTT14=
EXTT15=
EXTT16=
EXTT17=
PLAYORDER=
